<?xml version="1.0" encoding="utf-8"?>
<!-- Generator: Adobe Illustrator 15.1.0, SVG Export Plug-In . SVG Version: 6.00 Build 0)  -->
<!DOCTYPE svg PUBLIC "-//W3C//DTD SVG 1.1//EN" "http://www.w3.org/Graphics/SVG/1.1/DTD/svg11.dtd">
<svg version="1.1" id="Layer_1" xmlns="http://www.w3.org/2000/svg" xmlns:xlink="http://www.w3.org/1999/xlink" x="0px" y="0px"
	 width="792px" height="612px" viewBox="0 0 792 612" enable-background="new 0 0 792 612" xml:space="preserve">
<g>
	<path fill="#898585" d="M368.579,289.915c2.133-0.506,5.472-0.628,7.189-0.655c3.459-0.053,7.021,3.887,8.847,6.414
		c1.191,1.648,2.25,3.379,3.451,5.016c0.24,0.184,0.436,0.469,0.705,0.638c0.264,0.166,0.584,0.237,0.863,0.394
		c0.74,0.158,1.496,0.274,2.322,0.334c0.067,0.005,0.132,0.018,0.198,0.029c1.832-0.004,3.741,0.254,5.469,0.309
		c1.978,0.063,4.695,0.398,6.486-0.713c3.121-1.938,1.763-5.708,0.14-8.21c-1.938-2.99-2.951-6.201-1.902-9.706
		c0.938-3.14,3.472-5.005,6.525-5.762c5.517-1.366,11.2,0.223,16.717-0.571c0.876-0.125,0.356-0.937-0.056-1.343
		c-0.019-0.082-2.646-3.292-7.885-7.159c-3.188-2.171-6.973-3.995-10.682-5.063c-7.83-2.257-15.915-1.038-23.788,0.498
		c-4.398,0.894-9.568,3.782-10.976,4.444c-11.391,7.292-12.224,12.716-14.041,16.056c-1.67,3.069-2.015,6.217-2.01,9.704
		c0.141,0.428,0.54,0.882,0.843,0.707C357.501,294.982,359.884,292.972,368.579,289.915L368.579,289.915z"/>
</g>
<path fill="#1D75AB" d="M435.723,297.992c-0.02-2.373-0.709-5.241-1.483-7.454c-0.976-2.789-2.634-5.194-4.981-6.983
	c-4.584-3.491-13.922-4.73-18.822-1.269c-1.969,1.391-2.215,3.722-1.657,5.892c0.616,2.404,3.045,3.59,5.221,4.201
	c3.791,1.064,7.813,0.659,11.664,1.529c2.179,0.492,3.976,1.019,5.94,2.149c1.275,0.732,2.139,2.016,3.488,2.553
	c0.34,0.135,0.562-0.118,0.59-0.404C435.708,298.144,435.725,298.073,435.723,297.992z M433.372,295.999
	c-1.071-0.722-2.187-1.369-3.346-1.936c-2.144-1.047-5.108-1.556-7.47-1.834c-2.996-0.353-5.941-0.155-8.883-0.981
	c-3.346-0.939-5.781-4.856-3.045-7.818c1.752-1.896,5.014-1.999,7.379-2.008c3.475-0.013,7.142,0.88,10.16,2.608
	c2.743,1.57,4.338,4.569,5.342,7.443c0.563,1.605,1.059,3.869,1.185,5.748C434.24,296.835,433.877,296.338,433.372,295.999z"/>
<path fill="#ED1C24" d="M432.963,310.084c0,0-5.965,9.659-19.365,6.411c0,0-4.76-0.002-21.324-7.435c0,0-11.4-4.63-18.567-5.743
	c0,0-10.148-2.536-13.711,7.659c0,0-3.519,6.81,2.135,16.292c0,0,9.26,11.041,16.917,14.646c0,0,11.842,7.168,32.722-3.605
	c0,0,8.725-4.186,15.002-13.49L432.963,310.084z"/>
<path fill="#1D75AB" d="M435.182,297.722c0,0-0.842-13.195-10.141-15.631c0,0-11.557-3.631-15.055,1.683
	c0,0-4.162,6.996,6.509,8.413C416.495,292.187,429.47,292.408,435.182,297.722z"/>
<path fill="#1D75AB" d="M420.303,296.703"/>
</svg>
